<svg width="332" height="778" viewBox="0 0 332 778" fill="none" xmlns="http://www.w3.org/2000/svg">
<g clip-path="url(#clip0_4833_5079)">
<path fill-rule="evenodd" clip-rule="evenodd" d="M146.329 154.732L140.808 521.053L140.101 522.327C140.101 522.327 130.759 562.526 93.532 534.5C81.6421 520.911 81.6421 519.779 78.5281 514.259C75.414 508.738 68.1953 501.095 57.5793 508.031C46.9633 514.966 37.4797 533.084 40.4522 550.919C43.4247 568.754 54.1821 594.091 62.958 608.104C65.7889 615.747 69.7523 632.166 63.2411 645.472C56.73 658.777 39.603 678.594 36.0643 682.557C32.5257 686.52 11.2938 719.925 7.89666 734.363C4.49954 748.8 -12.5103 798.295 17.347 835.893C40.6659 865.258 43.2025 867.892 79.4601 885.655C110.976 897.82 148.298 898.925 161.568 899.755C174.838 900.584 239.252 900.031 275.468 873.768C311.684 847.504 329.101 820.135 331.312 783.643C333.524 747.15 311.652 710.382 300.318 692.135C288.983 673.889 275.192 662.831 271.598 652.326C268.004 641.82 256.116 632.111 269.662 605.052C283.209 577.992 285.697 567.487 287.632 564.169C289.567 560.852 294.544 529.888 276.85 511.919C269.132 504.2 266.069 504.454 266.069 504.454C266.069 504.454 258.881 501.69 255.563 506.942C252.246 512.195 245.611 528.783 236.488 535.971C227.365 543.158 222.665 547.582 213.265 547.582C203.866 547.582 188.661 541.223 189.49 525.742C189.214 509.431 182.302 159.16 182.302 159.16C182.302 159.16 180.92 139.255 195.849 127.92C193.637 100.274 190.043 54.3604 205.801 21.7384C197.784 20.6326 194.743 12.6154 194.743 12.6154C194.743 12.6154 183.961 15.6564 178.432 5.42745C168.756 -3.4192 153.827 0.451242 150.786 3.76871C147.745 7.08619 143.598 15.6564 133.369 12.3389C134.001 15.3479 126.351 22.9065 122.311 21.7384C122.311 21.7384 141.939 78.965 132.816 127.345C143.547 134.558 147.67 154.061 146.329 154.732Z" fill="#0C0C32"/>
<path fill-rule="evenodd" clip-rule="evenodd" d="M126.458 101.223V117.803C125.155 118.643 123.677 119.085 122.173 119.085C117.443 119.085 113.603 114.796 113.603 109.513C113.603 104.23 117.443 99.9404 122.173 99.9404C123.677 99.9404 125.155 100.383 126.458 101.223Z" fill="#343E8B"/>
<path d="M138.622 107.716H122.864V112.139H138.622V107.716Z" fill="#343E8B"/>
<path fill-rule="evenodd" clip-rule="evenodd" d="M124.799 69.4299V86.0096C123.496 86.8498 122.018 87.2921 120.514 87.2921C115.784 87.2921 111.944 83.0028 111.944 77.7198C111.944 72.4367 115.784 68.1475 120.514 68.1475C122.018 68.1475 123.496 68.5897 124.799 69.4299Z" fill="#343E8B"/>
<path d="M136.963 75.9229H121.205V80.3462H136.963V75.9229Z" fill="#343E8B"/>
<path fill-rule="evenodd" clip-rule="evenodd" d="M122.587 36.2551V52.8348C121.284 53.675 119.807 54.1173 118.302 54.1173C113.572 54.1173 109.732 49.828 109.732 44.545C109.732 39.2619 113.572 34.9727 118.302 34.9727C119.807 34.9727 121.284 35.4149 122.587 36.2551Z" fill="#343E8B"/>
<path d="M134.751 42.748H118.993V47.1714H134.751V42.748Z" fill="#343E8B"/>
<path fill-rule="evenodd" clip-rule="evenodd" d="M204.612 36.8615V53.4413C205.915 54.2814 207.393 54.7237 208.897 54.7237C213.627 54.7237 217.467 50.4345 217.467 45.1514C217.467 39.8683 213.627 35.5791 208.897 35.5791C207.393 35.5791 205.915 36.0214 204.612 36.8615Z" fill="#343E8B"/>
<path d="M208.206 43.3545H192.448V47.7778H208.206V43.3545Z" fill="#343E8B"/>
<path fill-rule="evenodd" clip-rule="evenodd" d="M201.965 69.5051V86.0848C203.268 86.925 204.746 87.3673 206.25 87.3673C210.98 87.3673 214.82 83.078 214.82 77.795C214.82 72.5119 210.98 68.2227 206.25 68.2227C204.746 68.2227 203.268 68.6649 201.965 69.5051Z" fill="#343E8B"/>
<path d="M205.559 75.998H189.801V80.4214H205.559V75.998Z" fill="#343E8B"/>
<path fill-rule="evenodd" clip-rule="evenodd" d="M201.334 101.646V118.225C202.637 119.066 204.115 119.508 205.62 119.508C210.35 119.508 214.19 115.219 214.19 109.936C214.19 104.653 210.35 100.363 205.62 100.363C204.115 100.363 202.637 100.806 201.334 101.646Z" fill="#343E8B"/>
<path d="M204.928 108.139H189.17V112.562H204.928V108.139Z" fill="#343E8B"/>
</g>
<defs>
<clipPath id="clip0_4833_5079">
<rect width="331.513" height="900" fill="white"/>
</clipPath>
</defs>
</svg>
