<svg width="331" height="776" viewBox="0 0 331 776" fill="none" xmlns="http://www.w3.org/2000/svg">
<path fill-rule="evenodd" clip-rule="evenodd" d="M161.531 130.977L158.371 431.021C158.371 431.021 155.876 440.501 149.057 441.666C149.057 441.666 145.398 443.495 144.4 446.489C143.402 449.483 0.531441 841.836 0.531441 841.836C0.531441 841.836 -1.96338 849.154 3.85787 844.164C3.59035 843.838 16.2991 827.14 35.8309 802.812C56.9275 776.534 86.1682 741.537 120.794 713.83C137.92 700.126 155.436 688.112 172.767 676.998C172.767 676.998 183.945 668.062 196.419 674.111C196.419 674.111 269.51 711.063 327.576 767.911C327.576 767.911 331.977 772.084 330.8 765.719C330.8 765.719 230.31 498.356 225.978 489.26C225.978 489.26 225.033 487.462 222.322 487.436C219.612 487.409 202.64 488.725 198.331 468.576L193.009 126.936C193.009 126.936 200.177 56.0749 211.005 31.3246L200.95 0L142.093 111.14C152.814 115.468 160.62 121.366 161.531 130.977Z" fill="#002E2D"/>
<path fill-rule="evenodd" clip-rule="evenodd" d="M144.282 90.0977C139.021 92.7549 137.363 97.1833 138.389 102.355L142.867 104.359C147.481 102.997 149.293 98.4128 148.878 92.337L144.282 90.0977Z" fill="#4A8475"/>
<path fill-rule="evenodd" clip-rule="evenodd" d="M151.942 75.6006C146.682 78.2578 145.024 82.6863 146.049 87.8579L150.528 89.8615C155.142 88.4999 156.954 83.9158 156.539 77.8399L151.942 75.6006Z" fill="#4A8475"/>
<path fill-rule="evenodd" clip-rule="evenodd" d="M159.485 61.458C154.225 64.1153 152.567 68.5437 153.592 73.7153L158.071 75.7189C162.685 74.3573 164.497 69.7732 164.082 63.6973L159.485 61.458Z" fill="#4A8475"/>
<path fill-rule="evenodd" clip-rule="evenodd" d="M166.675 47.1963C161.414 49.8535 159.757 54.2819 160.782 59.4536L165.261 61.4571C169.874 60.0956 171.686 55.5115 171.271 49.4356L166.675 47.1963Z" fill="#4A8475"/>
<path fill-rule="evenodd" clip-rule="evenodd" d="M174.1 33.1719C168.839 35.8291 167.181 40.2575 168.207 45.4292L172.685 47.4327C177.299 46.0712 179.111 41.4871 178.696 35.4112L174.1 33.1719Z" fill="#4A8475"/>
<path fill-rule="evenodd" clip-rule="evenodd" d="M181.171 19.6182C175.911 22.2754 174.253 26.7038 175.278 31.8755L179.757 33.879C184.371 32.5175 186.183 27.9334 185.768 21.8575L181.171 19.6182Z" fill="#4A8475"/>
</svg>
