<svg width="331" height="758" viewBox="0 0 331 758" fill="none" xmlns="http://www.w3.org/2000/svg">
<path fill-rule="evenodd" clip-rule="evenodd" d="M171.627 124.953L166.284 410.209L165.051 424.595C165.051 424.595 166.284 436.104 156.008 442.269C145.733 448.435 124.77 459.533 124.77 459.533C124.77 459.533 113.261 464.054 114.905 477.207C116.549 490.36 127.236 547.493 127.236 547.493C127.236 547.493 130.524 565.579 122.304 580.787C114.083 595.995 2.69372 798.222 2.69372 798.222C2.69372 798.222 -3.88276 807.265 3.51581 814.664C10.9144 822.062 19.9571 814.664 19.9571 814.664L179.026 664.637C179.026 664.637 185.192 654.362 197.934 660.116C210.676 665.87 309.323 703.274 309.323 703.274C309.323 703.274 316.311 705.74 320.01 701.219C323.709 696.698 321.654 686.833 321.654 686.833L277.263 583.664C277.263 583.664 271.097 573.388 278.496 549.549C285.894 525.709 329.463 392.124 329.463 392.124C329.463 392.124 334.396 378.149 326.586 372.805C318.777 367.462 310.967 367.051 302.335 377.327C293.704 387.602 234.104 460.355 234.104 460.355C234.104 460.355 229.403 467.157 222.372 467.793C213.928 468.556 207.426 461.037 207.312 452.744L202.866 122.898C202.866 122.898 207.387 78.0959 222.184 30.0053L212.731 0L153.988 105.118C163.232 109.115 170.057 114.38 171.628 124.953H171.627Z" fill="#B55987"/>
<path fill-rule="evenodd" clip-rule="evenodd" d="M159.041 90.8019L154.177 88.1543C149.975 91.0291 147.953 95.3977 147.527 99.9144L152.515 102.562C156.17 99.8102 158.505 96.0166 159.041 90.8019Z" fill="#B54F82"/>
<path fill-rule="evenodd" clip-rule="evenodd" d="M161.074 97.6347L159.89 100.003L154.053 97.0827L155.237 94.7148L161.074 97.6347Z" fill="#B54F82"/>
<path fill-rule="evenodd" clip-rule="evenodd" d="M166.745 76.8976L161.881 74.25C157.679 77.1248 155.656 81.4934 155.231 86.0101L160.218 88.6577C163.873 85.9059 166.209 82.1123 166.745 76.8976Z" fill="#B54F82"/>
<path fill-rule="evenodd" clip-rule="evenodd" d="M168.778 83.7304L167.593 86.0982L161.756 83.1784L162.941 80.8105L168.778 83.7304Z" fill="#B54F82"/>
<path fill-rule="evenodd" clip-rule="evenodd" d="M175.012 63.1808L170.148 60.5332C165.946 63.408 163.924 67.7766 163.499 72.2933L168.486 74.9409C172.141 72.1891 174.477 68.3955 175.012 63.1808Z" fill="#B54F82"/>
<path fill-rule="evenodd" clip-rule="evenodd" d="M177.045 70.0136L175.861 72.3814L170.024 69.4616L171.208 67.0938L177.045 70.0136Z" fill="#B54F82"/>
<path fill-rule="evenodd" clip-rule="evenodd" d="M182.716 49.2765L177.852 46.6289C173.65 49.5037 171.628 53.8723 171.203 58.389L176.19 61.0366C179.845 58.2848 182.181 54.4912 182.716 49.2765Z" fill="#B54F82"/>
<path fill-rule="evenodd" clip-rule="evenodd" d="M184.749 56.1093L183.565 58.4771L177.728 55.5573L178.912 53.1895L184.749 56.1093Z" fill="#B54F82"/>
<path fill-rule="evenodd" clip-rule="evenodd" d="M190.045 35.3712L185.18 32.7236C180.978 35.5984 178.956 39.967 178.531 44.4837L183.518 47.1313C187.173 44.3795 189.509 40.5859 190.045 35.3712Z" fill="#B54F82"/>
<path fill-rule="evenodd" clip-rule="evenodd" d="M192.078 42.204L190.893 44.5719L185.056 41.652L186.241 39.2842L192.078 42.204Z" fill="#B54F82"/>
<path fill-rule="evenodd" clip-rule="evenodd" d="M197.749 21.4669L192.885 18.8193C188.683 21.6941 186.66 26.0627 186.235 30.5794L191.222 33.227C194.877 30.4752 197.213 26.6816 197.749 21.4669Z" fill="#B54F82"/>
<path fill-rule="evenodd" clip-rule="evenodd" d="M199.782 28.2997L198.597 30.6676L192.76 27.7477L193.945 25.3799L199.782 28.2997Z" fill="#B54F82"/>
</svg>
